#!OML:ASF F:\VICON\USERDATA\Patient Classification 1\PLAYGROUND\JustinFriday\JustinFriday.ASF
:FULLY-SPECIFIED
:DEGREES
1376
root 12.7026 15.5915 20.923 -387.781 -173.546 6.60672
lowerback 13.3188 0.00448298 -2.2874
upperback -1.44996 -0.209722 2.35464
thorax -9.0458 0.0610181 3.87654
lowerneck 11.2227 -3.66823 -7.52092
upperneck 11.3072 -7.68144 7.58811
head 2.1248 -4.64223 3.59258
rclavicle 1.82882e-014 0
rhumerus 84.6676 -43.2008 -68.9803
rradius 123.182
rwrist 181.833
rhand -7.84121 30.1726
rfingers 7.12502
rthumb 18.0616 0.991231
lclavicle 1.82882e-014 0
lhumerus 64.4003 21.2936 56.6847
lradius 127.778
lwrist 0.0522611
lhand -51.3007 -6.60788
lfingers 7.12502
lthumb -23.837 21.9331
rfemur 0.267365 -0.346474 27.8551
rtibia 63.7634
rfoot -27.4914 -18.67
rtoes -6.10411
lfemur -9.58404 -0.61532 -8.62352
ltibia 66.8716
lfoot -24.7897 -4.08766
ltoes -19.3011
1377
root 12.7161 15.3562 20.7986 -387.264 -174.041 7.85725
lowerback 12.4832 -0.151395 -1.30146
upperback -0.807762 -0.27253 2.68283
thorax -7.86655 -0.0522063 3.6526
lowerneck 10.8484 -3.70548 -7.2314
upperneck 11.1404 -7.67498 8.00974
head 2.13323 -4.60202 3.66495
rclavicle 3.97569e-016 -1.98785e-015
rhumerus 79.7289 -44.2313 -67.7972
rradius 126.917
rwrist 180.525
rhand -7.33289 32.4925
rfingers 7.12502
rthumb 18.5506 3.35702
lclavicle 3.97569e-016 -1.98785e-015
lhumerus 60.3543 19.7908 55.9177
lradius 130.529
lwrist -2.18083
lhand -51.4926 -7.41622
lfingers 7.12502
lthumb -24.0211 21.1007
rfemur -1.86783 0.169888 30.0025
rtibia 67.3263
rfoot -28.8852 -19.2634
rtoes -4.45636
lfemur -11.603 0.538699 -6.41271
ltibia 69.9526
lfoot -26.6129 -4.26039
ltoes -18.0101
1378
root 12.7329 15.131 20.6967 -388.169 -174.147 7.90905
lowerback 13.3433 -0.0218809 -1.47728
upperback 0.257603 -0.199888 2.61428
thorax -7.21472 -0.0564563 3.66384
lowerneck 10.5931 -3.90487 -7.11521
upperneck 10.613 -7.84604 8.44337
head 2.03817 -4.64233 3.7768
rclavicle 2.38542e-015 2.62396e-014
rhumerus 73.8027 -45.5207 -65.9458
rradius 130.495
rwrist 179.3
rhand -6.16498 34.3256
rfingers 7.12502
rthumb 19.6738 5.3011
lclavicle 2.38542e-015 2.62396e-014
lhumerus 56.1775 17.765 55.6434
lradius 132.939
lwrist -5.11364
lhand -51.7995 -8.12498
lfingers 7.12502
lthumb -24.3153 20.3528
rfemur -2.54268 0.0269672 30.4642
rtibia 70.924
rfoot -29.6922 -19.6168
rtoes -4.02552
lfemur -11.9171 1.27259 -5.75555
ltibia 72.9831
lfoot -28.1291 -4.1139
ltoes -19.1706
1379
root 12.7198 14.9632 20.5722 -388.64 -172.898 8.54089
lowerback 14.0452 -0.517804 -1.11357
upperback 0.79366 -0.866023 2.41263
thorax -6.99227 -0.423436 3.3771
lowerneck 10.832 -4.00562 -7.24379
upperneck 9.91955 -7.96415 9.08325
head 1.82852 -4.69003 4.01117
rclavicle -1.53064e-014 2.26615e-014
rhumerus 66.3738 -46.2076 -63.1534
rradius 133.699
rwrist 178.156
rhand -4.38854 35.3613
rfingers 7.12502
rthumb 21.3808 6.52095
lclavicle -1.53064e-014 2.26615e-014
lhumerus 51.1783 15.4454 55.8013
lradius 134.991
lwrist -7.82611
lhand -52.7166 -10.9552
lfingers 7.12502
lthumb -25.1942 17.4019
rfemur -3.54363 -1.87519 30.4236
rtibia 74.1684
rfoot -29.9712 -20.4195
rtoes -5.6523
lfemur -13.0357 0.313757 -5.47877
ltibia 75.5611
lfoot -28.9033 -4.36599
ltoes -18.8485
1380
root 12.7129 14.8494 20.459 -388.779 -171.739 7.63801
lowerback 14.7553 -0.563661 -2.63756
upperback 1.27046 -1.22836 2.14732
thorax -6.82974 -0.577648 4.04458
lowerneck 10.7373 -3.9834 -7.64037
upperneck 9.38623 -7.91986 9.77906
head 1.71594 -4.65326 4.29312
rclavicle 1.59028e-014 -1.47101e-014
rhumerus 58.4919 -46.0792 -59.6808
rradius 136.438
rwrist 177.474
rhand -2.10046 35.1099
rfingers 7.12502
rthumb 23.577 6.53516
lclavicle 1.59028e-014 -1.47101e-014
lhumerus 45.7283 13.3425 56.5745
lradius 136.589
lwrist -10.6104
lhand -55.1071 -15.3199
lfingers 7.12502
lthumb -27.4826 12.6948
rfemur -4.58336 -3.02473 28.8959
rtibia 77.1752
rfoot -29.4682 -20.978
rtoes -7.62379
lfemur -13.7599 -0.24155 -6.78968
ltibia 77.4478
lfoot -28.9774 -4.82999
ltoes -17.5407
1381
root 12.7067 14.7929 20.3459 -389.209 -171.497 7.29171
lowerback 15.4936 -0.414344 -3.2303
upperback 2.11228 -1.23133 2.11637
thorax -6.32677 -0.625836 4.3573
lowerneck 9.75389 -4.15795 -7.52374
upperneck 9.03837 -7.95386 9.92155
head 1.77091 -4.59421 4.28717
rclavicle 6.16232e-015 -3.4191e-014
rhumerus 50.9335 -45.3568 -56.4949
rradius 138.63
rwrist 177.623
rhand -1.10448 33.7363
rfingers 7.12502
rthumb 24.5321 5.28777
lclavicle 6.16232e-015 -3.4191e-014
lhumerus 40.5729 11.3954 57.8024
lradius 137.562
lwrist -13.8278
lhand -58.7252 -21.4993
lfingers 7.12502
lthumb -30.9374 5.91406
rfemur -4.97969 -3.54867 28.4542
rtibia 79.4941
rfoot -28.5588 -21.3376
rtoes -7.9064
lfemur -13.669 -0.166012 -6.89458
ltibia 78.7767
lfoot -28.8827 -5.88508
ltoes -17.257
1382
root 12.6997 14.7179 20.23 -389.919 -171.517 7.05111
lowerback 16.3355 -0.158388 -3.4445
upperback 3.07656 -1.07655 1.99134
thorax -5.77199 -0.629587 4.32221
lowerneck 8.72473 -4.44833 -7.16576
upperneck 8.68345 -8.13865 10.0607
head 1.83733 -4.60723 4.23777
rclavicle -8.34896e-015 -2.38542e-015
rhumerus 43.3353 -43.9731 -53.4629
rradius 140.186
rwrist 178.867
rhand -2.91551 31.7064
rfingers 7.12502
rthumb 22.7951 3.03328
lclavicle -8.34896e-015 -2.38542e-015
lhumerus 35.56 9.19744 59.4946
lradius 138.017
lwrist -16.7728
lhand -60.4298 -43.3184
lfingers 7.12502
lthumb -32.5609 -16.2266
rfemur -5.12945 -4.03034 28.2097
rtibia 81.6235
rfoot -27.3956 -21.759
rtoes -8.47137
lfemur -13.2074 0.160775 -6.64558
ltibia 79.9178
lfoot -28.7859 -7.3373
ltoes -16.0756
1383
root 12.6898 14.6714 20.1133 -390.492 -171.753 7.16966
lowerback 17.0126 0.0208474 -3.23247
upperback 3.66732 -0.912291 2.02216
thorax -5.52747 -0.609848 4.20976
lowerneck 8.9752 -4.57119 -7.23897
upperneck 7.94142 -8.23918 10.4447
head 1.60351 -4.65052 4.38551
rclavicle -1.83876e-014 -8.74653e-015
rhumerus 35.8484 -41.5319 -50.4685
rradius 140.946
rwrist 180.613
rhand 0.99119 32.3997
rfingers 7.12502
rthumb 26.5394 4.23879
lclavicle -1.83876e-014 -8.74653e-015
lhumerus 30.114 6.99747 61.6415
lradius 138.036
lwrist -18.7565
lhand -64.0298 -36.8723
lfingers 7.12502
lthumb -35.9791 -10.5507
rfemur -5.44939 -4.63384 28.3503
rtibia 83.4131
rfoot -25.6033 -22.1593
rtoes -10.8463
lfemur -12.7368 0.557203 -5.91677
ltibia 80.8105
lfoot -28.7776 -8.66659
ltoes -13.9562
1384
root 12.6721 14.6476 20.0036 -390.449 -172.06 7.52069
lowerback 17.2075 -0.00731868 -2.6727
upperback 3.94582 -0.900572 2.08962
thorax -5.34368 -0.641439 3.96037
lowerneck 9.60894 -4.66123 -7.07698
upperneck 6.99496 -8.24567 10.4431
head 1.21968 -4.65494 4.39669
rclavicle 1.88845e-015 4.01545e-014
rhumerus 29.5684 -38.4821 -48.7511
rradius 140.805
rwrist 181.571
rhand 3.578 31.2682
rfingers 7.12502
rthumb 29.0127 3.50661
lclavicle 1.88845e-015 4.01545e-014
lhumerus 24.814 5.56169 63.9498
lradius 137.505
lwrist -19.5426
lhand -62.887 -34.5172
lfingers 7.12502
lthumb -34.8957 -7.93683
rfemur -6.46327 -5.20118 28.7141
rtibia 85.0264
rfoot -23.3346 -22.4092
rtoes -12.7253
lfemur -12.8665 1.05991 -4.97512
ltibia 81.5981
lfoot -28.7234 -9.79448
ltoes -13.2037
1385
root 12.6396 14.6286 19.8989 -389.964 -172.02 7.60156
lowerback 17.3199 -0.173404 -2.21949
upperback 4.03169 -1.06553 1.95558
thorax -5.30882 -0.73639 3.5945
lowerneck 9.86027 -4.71859 -6.80391
upperneck 6.26849 -8.19934 10.4467
head 0.952252 -4.62077 4.37509
rclavicle -5.76476e-015 -1.23246e-014
rhumerus 24.3956 -35.024 -48.1852
rradius 139.957
rwrist 182.195
rhand 4.52529 30.2464
rfingers 7.12502
rthumb 29.9171 2.64411
lclavicle -5.76476e-015 -1.23246e-014
lhumerus 19.8676 4.48291 66.4373
lradius 136.59
lwrist -19.1117
lhand -62.5177 -29.9092
lfingers 7.12502
lthumb -34.5452 -3.24819
rfemur -7.92089 -5.90424 28.4378
rtibia 86.5389
rfoot -20.8882 -22.1665
rtoes -13.813
lfemur -13.414 1.43567 -4.68427
ltibia 82.245
lfoot -28.6419 -10.4656
ltoes -13.9082
1386
root 12.5991 14.6225 19.7943 -389.491 -171.941 7.48325
lowerback 17.3942 -0.140736 -1.9683
upperback 4.23043 -1.01293 1.91023
thorax -5.14576 -0.732154 3.3901
lowerneck 9.85135 -4.81378 -6.98528
upperneck 5.50638 -8.24644 10.9617
head 0.758301 -4.63547 4.57331
rclavicle 1.93815e-014 -3.57812e-015
rhumerus 20.1661 -31.9481 -48.0259
rradius 138.427
rwrist 182.332
rhand 4.28686 30.3173
rfingers 7.12502
rthumb 29.6895 2.67422
lclavicle 1.93815e-014 -3.57812e-015
lhumerus 15.5867 3.43279 69.5685
lradius 135.322
lwrist -17.6954
lhand -60.4625 -24.3148
lfingers 7.12502
lthumb -32.5921 2.77061
rfemur -9.24221 -6.62714 27.7675
rtibia 87.9017
rfoot -18.5258 -21.4646
rtoes -13.5775
lfemur -13.7051 1.84868 -4.69589
ltibia 82.6507
lfoot -28.8522 -10.5983
ltoes -16.424
